#N canvas 784 35 994 953 12;
#X obj 265 118 print;
#X msg 265 57 abc;
#X floatatom 304 57 5 0 0 0 - - - 0;
#X obj 350 57 bng 19 250 50 0 empty empty empty 0 -10 0 12 #fcfcfc #000000 #000000;
#X obj 203 828 tgl 70 0 start empty toggle 0 -12 0 20 #ff0400 #ffffff #ff0400 0 25;
#X obj 393 58 tgl 19 0 empty empty empty 0 -10 0 12 #fcfcfc #000000 #000000 0 1;
#X obj 12 11 cnv 19 226 150 empty empty empty 20 12 0 12 #e0e0e0 #404040 0;
#X text 87 95 message (Ctrl+2);
#X msg 38 96;
#X obj 38 61 print;
#X text 94 60 object (Ctrl+1);
#X floatatom 38 130 5 0 0 0 - - - 0;
#X text 94 129 number (Ctrl+3);
#X text 262 31 print data in terminal;
#X text 45 827 Custom design & values;
#X text 52 866 and choose properties;
#X floatatom 203 903 5 0 0 0 - - - 0;
#X text 45 847 right click on element;
#X text 136 903 0 / 25 ->;
#X obj 11 535 cnv 19 326 250 empty empty empty 20 12 0 12 #e0e0e0 #404040 0;
#X obj 60 724 hsl 184 19 0 20 0 0 empty empty range\ 0-20 189 10 0 12 #fcfcfc #000000 #000000 0 1;
#X obj 57 695 hradio 19 1 0 10 empty empty cells\ 10 194 11 0 12 #fcfcfc #000000 #000000 0;
#X obj 60 664 hsl 184 19 0 9 0 0 empty empty range\ 0-9 189 10 0 12 #fcfcfc #000000 #000000 0 1;
#X obj 145 618 tgl 19 0 empty empty 0/1 -2 -10 0 12 #fcfcfc #000000 #000000 0 1;
#X obj 186 618 tgl 19 0 empty empty 0/5 -2 -10 0 12 #fcfcfc #000000 #000000 0 5;
#X obj 227 618 tgl 19 0 empty empty 0/9 -2 -10 0 12 #fcfcfc #000000 #000000 0 9;
#X obj 57 594 bng 19 250 50 0 empty empty empty 0 -10 0 12 #fcfcfc #000000 #000000;
#X msg 57 618 4;
#X obj 97 594 bng 19 250 50 0 empty empty empty 0 -10 0 12 #fcfcfc #000000 #000000;
#X msg 97 618 6;
#X obj 57 754 nbx 5 17 -1e+37 1e+37 0 0 empty empty empty 0 -10 0 12 #fcfcfc #000000 #000000 0 256;
#N canvas 0 50 450 250 (subpatch) 0;
#X coords 0 1 100 -1 200 150 1;
#X restore 244 11 graph;
#N canvas 0 50 450 250 (subpatch) 0;
#X coords 0 1 100 -1 326 140 1;
#X restore 11 794 graph;
#X obj 344 734 cnv 19 600 200 empty empty Time\ unit:\ milli-seconds\ |\ 1s\ =\ 1000ms 4 28 2 12 #ffe3c6 #404040 0;
#X obj 566 740 cnv 19 154 26 empty empty empty 20 12 0 12 #ffffff #404040 0;
#N canvas 0 50 450 250 (subpatch) 0;
#X coords 0 1 100 -1 154 26 1;
#X restore 566 740 graph;
#X text 569 744 Basic time operations;
#X obj 454 774 cnv 19 380 150 empty empty empty 20 12 0 12 #000000 #404040 0;
#X obj 453 773 cnv 19 380 150 empty empty empty 20 12 0 12 #e3c6ff #404040 0;
#X obj 466 783 tgl 19 0 empty empty empty 0 -10 0 12 #fcfcfc #000000 #000000 0 1;
#X obj 466 893 bng 19 250 50 0 empty empty empty 0 -10 0 12 #fcfcfc #000000 #000000;
#X msg 533 783 1500;
#X obj 581 843 delay 500;
#X obj 710 862 delay 500;
#X obj 581 893 bng 19 250 50 0 empty empty empty 0 -10 0 12 #fcfcfc #000000 #000000;
#X obj 710 893 bng 19 250 50 0 empty empty empty 0 -10 0 12 #fcfcfc #000000 #000000;
#X obj 466 824 metro 1000;
#X obj 641 816 / 3;
#X obj 488 893 print metro;
#X obj 603 893 print delay-a;
#X obj 732 893 print delay-b;
#X obj 351 797 cnv 19 100 100 empty empty empty 20 12 0 12 #000000 #404040 0;
#X obj 839 797 cnv 19 100 100 empty empty empty 20 12 0 12 #000000 #404040 0;
#X obj 350 796 cnv 19 100 100 empty empty empty 20 12 0 12 #ffc7c6 #404040 0;
#X obj 365 807 tgl 19 0 empty empty empty 0 -10 0 12 #fcfcfc #000000 #000000 0 1;
#X obj 365 869 bng 19 250 50 0 empty empty empty 0 -10 0 12 #fcfcfc #000000 #000000;
#X obj 365 838 metro 500;
#X obj 838 796 cnv 19 100 100 empty empty empty 20 12 0 12 #ffc7c6 #404040 0;
#X obj 853 807 bng 19 250 50 0 empty empty empty 0 -10 0 12 #fcfcfc #000000 #000000;
#X obj 853 869 bng 19 250 50 0 empty empty empty 0 -10 0 12 #fcfcfc #000000 #000000;
#X obj 853 838 delay 1000;
#N canvas 979 394 718 300 (subpatch) 0;
#X obj 208 94 metro 1000;
#X obj 208 70 tgl 19 0 empty empty empty 0 -10 0 12 #fcfcfc #000000 #000000 0 1;
#X obj 208 118 tgl 19 0 empty empty empty 0 -10 0 12 #fcfcfc #000000 #000000 0 127;
#X msg 108 192 \$1 1000;
#X obj 108 216 line;
#X obj 208 142 * -1;
#X obj 208 166 + 127;
#X msg 208 192 \$1 1000;
#X obj 208 216 line;
#X msg 382 113 2;
#X obj 382 137 + 1;
#X obj 382 161 sel 7;
#X obj 382 185 delay 1;
#X msg 319 185 set \$1;
#X msg 382 209 -1;
#X obj 108 240 s sl_positive;
#X obj 208 240 s sl_negative;
#X obj 557 212 - 1;
#X msg 557 182 7;
#X obj 557 156 t b f, f 8;
#X obj 442 156 s rs_positive;
#X obj 557 236 s rs_negative;
#X obj 148 113 s bang;
#X obj 78 113 delay 500;
#X obj 78 137 s toggle;
#X obj 208 21 r start;
#X obj 208 45 != 0;
#X connect 0 0 2 0;
#X connect 0 0 9 0;
#X connect 0 0 22 0;
#X connect 0 0 23 0;
#X connect 1 0 0 0;
#X connect 2 0 5 0;
#X connect 2 0 3 0;
#X connect 3 0 4 0;
#X connect 4 0 15 0;
#X connect 5 0 6 0;
#X connect 6 0 7 0;
#X connect 7 0 8 0;
#X connect 8 0 16 0;
#X connect 9 0 10 0;
#X connect 10 0 11 0;
#X connect 10 0 13 0;
#X connect 10 0 19 0;
#X connect 10 0 20 0;
#X connect 11 0 12 0;
#X connect 12 0 14 0;
#X connect 13 0 9 0;
#X connect 14 0 13 0;
#X connect 17 0 21 0;
#X connect 18 0 17 0;
#X connect 19 0 18 0;
#X connect 19 1 17 1;
#X connect 23 0 24 0;
#X connect 25 0 26 0;
#X connect 26 0 1 0;
#X restore 288 179 pd;
#X obj 11 166 cnv 19 326 364 empty empty empty 20 12 0 12 #e0e0e0 #404040 0;
#X obj 38 212 bng 19 250 50 0 empty bang empty 0 -10 0 12 #fcfcfc #000000 #000000;
#X obj 38 236 tgl 19 0 empty toggle empty 0 -10 0 12 #fcfcfc #000000 #000000 0 1;
#X text 81 213 bang (Ctrl+Shift+B / obejct bng;
#X text 60 237 toggle (Ctrl+Shift+T / obejct tgl);
#X obj 90 463 cnv 19 170 36 empty empty empty 20 12 0 12 #bbbbbb #404040 0;
#X obj 90 331 cnv 19 170 36 empty empty empty 20 12 0 12 #bbbbbb #404040 0;
#X obj 90 405 cnv 19 170 20 empty empty empty 20 12 0 12 #bbbbbb #404040 0;
#X obj 90 368 cnv 19 170 36 empty empty empty 20 12 0 12 #9f9f9f #404040 0;
#X obj 90 426 cnv 19 170 36 empty empty empty 20 12 0 12 #9f9f9f #404040 0;
#X obj 90 310 cnv 19 170 20 empty empty empty 20 12 0 12 #9f9f9f #404040 0;
#X obj 90 289 cnv 19 170 20 empty empty empty 20 12 0 12 #bbbbbb #404040 0;
#X obj 95 504 hsl 162 19 0 127 0 0 empty sl_negative empty -2 -10 0 12 #fcfcfc #000000 #000000 0 1;
#X obj 97 266 hradio 19 1 0 8 empty rs_positive empty 0 -10 0 12 #fcfcfc #000000 #000000 0;
#X obj 63 306 vsl 19 162 0 127 0 0 empty sl_positive empty 0 -9 0 12 #fcfcfc #000000 #000000 0 1;
#X obj 265 322 vradio 19 1 0 8 empty rs_negative empty 0 -10 0 12 #fcfcfc #000000 #000000 0;
#X text 109 291 Vertical & horizontal;
#X text 193 310 - sliders;
#X text 88 330 (Ctrl+Shift+V) or object;
#X text 137 348 [vsl] for verical;
#X text 88 366 (Ctrl+Shift+J) or object;
#X text 116 384 [hsl] for horozontal;
#X text 144 405 - radio switches;
#X text 88 427 (Ctrl+Shift+D) or object;
#X text 116 445 [vradio] for verical;
#X text 88 463 (Ctrl+Shift+I) or object;
#X text 95 481 [hradio] for horozontal;
#X obj 89 548 cnv 19 174 26 empty empty empty 20 12 0 12 #ffffff #404040 0;
#N canvas 0 50 450 250 (subpatch) 0;
#X coords 0 1 100 -1 174 26 1;
#X restore 89 548 graph;
#X text 91 552 Graphical interface flow;
#X obj 73 175 cnv 19 204 26 empty empty empty 20 12 0 12 #ffffff #404040 0;
#N canvas 0 50 450 250 (subpatch) 0;
#X coords 0 1 100 -1 204 26 1;
#X restore 73 175 graph;
#X text 77 179 Graphical interface elements;
#X obj 62 24 cnv 19 106 26 empty empty empty 20 12 0 12 #ffffff #404040 0;
#X text 66 28 Basic elements;
#N canvas 0 50 450 250 (subpatch) 0;
#X coords 0 1 100 -1 106 26 1;
#X restore 62 24 graph;
#X obj 345 590 cnv 19 556 140 empty empty empty 20 12 0 12 #9f9f9f #404040 0;
#X obj 546 595 cnv 19 350 130 empty empty empty 20 12 0 12 #e0e0e0 #404040 0;
#X obj 350 595 cnv 19 190 130 empty empty empty 20 12 0 12 #e0e0e0 #404040 0;
#X obj 357 634 cnv 19 72 20 empty empty hot\ inlet 4 12 0 12 #ff0400 #ffffff 0;
#X obj 456 634 cnv 19 76 20 empty empty cold\ inlet 4 12 0 12 #0400ff #ffffff 0;
#X obj 430 655 +;
#X floatatom 430 679 5 0 0 0 - - - 0;
#X floatatom 430 603 5 0 0 0 - - - 0;
#X floatatom 470 604 5 0 0 0 - - - 0;
#X obj 592 628 cnv 19 39 19 empty empty empty 20 12 0 12 #ffffff #404040 0;
#X obj 652 628 cnv 19 130 19 empty empty empty 20 12 0 12 #ffffff #404040 0;
#X obj 552 676 +;
#X floatatom 552 700 5 0 0 0 - - - 0;
#X floatatom 552 604 5 0 0 0 - - - 0;
#X floatatom 592 605 5 0 0 0 - - - 0;
#X obj 592 628 t b f;
#X obj 652 628 trigger bang float;
#X text 634 628 ==;
#X floatatom 652 605 5 0 0 0 - - - 0;
#X obj 652 662 bng 19 250 50 0 empty empty empty 0 -10 0 12 #dfdfdf #000000 #000000;
#X floatatom 775 663 5 0 0 0 - - - 0;
#X obj 767 600 cnv 19 120 20 empty empty trigger\ solution 4 12 0 12 #c6ffc7 #606060 0;
#N canvas 0 50 450 250 (subpatch) 0;
#X coords 0 1 100 -1 556 140 1;
#X restore 345 447 graph;
#X obj 575 530 +;
#X floatatom 575 554 5 0 0 0 - - - 0;
#X floatatom 575 498 5 0 0 0 - - - 0;
#X floatatom 615 499 5 0 0 0 - - - 0;
#X floatatom 665 554 5 0 0 0 - - - 0;
#X floatatom 665 498 5 0 0 0 - - - 0;
#X obj 665 530 + 1;
#X floatatom 715 554 5 0 0 0 - - - 0;
#X floatatom 715 498 5 0 0 0 - - - 0;
#X obj 715 530 - 3;
#X floatatom 765 554 5 0 0 0 - - - 0;
#X floatatom 765 498 5 0 0 0 - - - 0;
#X obj 765 530 * 2;
#X floatatom 815 554 5 0 0 0 - - - 0;
#X floatatom 815 498 5 0 0 0 - - - 0;
#X obj 815 530 / 2;
#X text 405 506 use interactive help;
#X text 370 538 to find more informations;
#X text 550 530 -->;
#X text 398 554 right click on object;
#X text 356 522 (made of editable pd patch);
#X text 574 459 Basic math;
#N canvas 0 50 450 250 (subpatch) 0;
#X coords 0 1 100 -1 76 22 1;
#X restore 572 457 graph;
#X text 715 415 Oscillators:;
#X floatatom 623 233 5 0 0 0 - - - 0;
#X obj 663 113 delay 500;
#X obj 702 141 delay 500;
#X obj 623 57 tgl 19 0 empty empty empty 0 -10 0 12 #fcfcfc #000000 #000000 0 1;
#X obj 623 256 mtof;
#X floatatom 623 281 10 0 0 0 - - - 0;
#X obj 623 402 dac~;
#X obj 623 358 *~;
#X msg 623 196 77;
#X msg 663 196 76;
#X msg 702 196 75;
#X obj 742 171 delay 500;
#X msg 742 196 74;
#X obj 623 304 osc~;
#X text 542 196 MIDI values;
#X text 437 256 MIDI to frquency converter;
#X obj 623 84 metro 2000;
#X msg 690 37 1000;
#X obj 730 84 / 4;
#X msg 730 37 2000;
#X text 682 17 change tempo;
#X text 549 58 start/stop;
#X obj 831 169 tgl 19 0 empty empty volume\ mute 24 10 0 12 #fcfcfc #000000 #000000 0 1;
#X obj 831 193 vsl 19 162 0 1 0 0 empty empty volume 24 155 0 12 #fcfcfc #000000 #000000 0 1;
#X text 743 260 slider value;
#X text 785 280 is 0-1;
#X obj 803 415 osc~;
#X obj 843 415 phasor~;
#X msg 345 403 \; pd dsp \$1;
#X obj 345 378 tgl 19 0 empty empty Sound\ (dsp)\ -\ on/off 24 10 0 12 #fcfcfc #000000 #000000 0 1;
#X connect 1 0 0 0;
#X connect 2 0 0 0;
#X connect 3 0 0 0;
#X connect 4 0 16 0;
#X connect 5 0 0 0;
#X connect 20 0 30 0;
#X connect 21 0 20 0;
#X connect 22 0 21 0;
#X connect 23 0 22 0;
#X connect 24 0 22 0;
#X connect 25 0 22 0;
#X connect 26 0 27 0;
#X connect 27 0 22 0;
#X connect 28 0 29 0;
#X connect 29 0 22 0;
#X connect 39 0 46 0;
#X connect 41 0 46 1;
#X connect 41 0 47 0;
#X connect 42 0 43 0;
#X connect 42 0 44 0;
#X connect 42 0 49 0;
#X connect 43 0 45 0;
#X connect 43 0 50 0;
#X connect 46 0 40 0;
#X connect 46 0 42 0;
#X connect 46 0 48 0;
#X connect 47 0 42 1;
#X connect 47 0 43 1;
#X connect 54 0 56 0;
#X connect 56 0 55 0;
#X connect 58 0 60 0;
#X connect 60 0 59 0;
#X connect 103 0 104 0;
#X connect 105 0 103 0;
#X connect 106 0 103 1;
#X connect 109 0 110 0;
#X connect 111 0 109 0;
#X connect 112 0 113 0;
#X connect 113 0 109 0;
#X connect 113 1 109 1;
#X connect 114 0 117 0;
#X connect 114 1 118 0;
#X connect 116 0 114 0;
#X connect 121 0 122 0;
#X connect 123 0 121 0;
#X connect 124 0 121 1;
#X connect 126 0 127 0;
#X connect 127 0 125 0;
#X connect 129 0 130 0;
#X connect 130 0 128 0;
#X connect 132 0 133 0;
#X connect 133 0 131 0;
#X connect 135 0 136 0;
#X connect 136 0 134 0;
#X connect 145 0 149 0;
#X connect 146 0 154 0;
#X connect 146 0 147 0;
#X connect 147 0 155 0;
#X connect 147 0 156 0;
#X connect 148 0 161 0;
#X connect 149 0 150 0;
#X connect 150 0 158 0;
#X connect 152 0 151 0;
#X connect 152 0 151 1;
#X connect 153 0 145 0;
#X connect 154 0 145 0;
#X connect 155 0 145 0;
#X connect 156 0 157 0;
#X connect 157 0 145 0;
#X connect 158 0 152 0;
#X connect 161 0 153 0;
#X connect 161 0 146 0;
#X connect 162 0 163 0;
#X connect 162 0 161 1;
#X connect 163 0 146 1;
#X connect 163 0 147 1;
#X connect 163 0 156 1;
#X connect 164 0 163 0;
#X connect 164 0 161 1;
#X connect 167 0 168 0;
#X connect 168 0 152 1;
#X connect 174 0 173 0;
