#N canvas 0 0 1920 989 12;
#X obj 24 54 cnv 19 170 300 empty empty empty 20 12 0 12 #ffc7c6 #404040 0;
#X obj 50 113 key;
#X floatatom 50 142 4 0 0 0 - - - 0;
#X obj 50 233 keyname;
#X symbolatom 96 304 10 0 0 0 - - - 0;
#X obj 50 173 keyup;
#X floatatom 50 202 4 0 0 0 - - - 0;
#X obj 115 132 sel 32;
#X obj 115 192 sel 32;
#X obj 115 252 sel Space;
#X obj 115 276 bng 19 250 50 0 empty empty empty 0 -10 0 12 #fcfcfc #000000 #000000;
#X obj 115 216 bng 19 250 50 0 empty empty empty 0 -10 0 12 #fcfcfc #000000 #000000;
#X obj 115 156 bng 19 250 50 0 empty empty empty 0 -10 0 12 #fcfcfc #000000 #000000;
#X text 77 68 keyboard control;
#X obj 50 257 tgl 19 0 empty empty empty 0 -10 0 12 #fcfcfc #000000 #000000 0 1;
#X text 35 85 (press space for bang);
#X obj 200 54 cnv 19 300 300 empty empty empty 20 12 0 12 #ffe3c6 #404040 0;
#X obj 372 178 bng 19 250 50 0 empty empty empty 0 -10 0 12 #fcfcfc #000000 #000000;
#X floatatom 396 179 5 0 0 0 - - - 0;
#X msg 437 178 abc;
#X obj 222 178 bng 19 250 50 0 empty empty empty 0 -10 0 12 #fcfcfc #000000 #000000;
#X floatatom 246 179 5 0 0 0 - - - 0;
#X msg 287 178 abc;
#X obj 222 224 send a;
#X obj 372 224 s b;
#X obj 222 264 r a;
#X obj 372 288 print receive-b;
#X obj 222 288 print receive-a;
#X obj 372 264 receive b;
#X text 265 83 send and receive data;
#X obj 300 115 s;
#X text 326 115 ==;
#X obj 344 115 send;
#X text 326 138 ==;
#X obj 300 138 r;
#X obj 344 138 receive;
#X obj 24 546 cnv 19 364 370 empty empty press\ '\\['or'\\]'\ to\ control\ sliders 70 15 0 12 #c7c6ff #404040 0;
#X obj 39 620 sel 91;
#X obj 229 620 sel 93;
#X obj 229 675 + 1;
#X msg 276 754 set \$1;
#X msg 229 650 -1;
#X msg 86 754 set \$1;
#X obj 39 673 - 1;
#X obj 86 778 s minusMtof;
#X obj 276 778 s plusMtof;
#X obj 283 620 r plusMtof;
#X obj 95 620 r minusMtof;
#X obj 39 743 vsl 19 162 0 10 0 0 empty empty empty 0 -9 0 12 #fcfcfc #000000 #000000 0 1;
#X obj 229 743 vsl 19 162 0 10 0 0 empty empty empty 0 -9 0 12 #fcfcfc #000000 #000000 0 1;
#X msg 276 718 -1;
#X obj 86 692 sel 0;
#X text 114 716 reset at 0;
#X obj 229 587 keyup;
#X obj 276 694 sel 10;
#X msg 86 716 11;
#X obj 392 546 cnv 19 240 370 empty empty press\ '['or']'\ to\ control\ slider 8 15 0 12 #e3c6ff #404040 0;
#X obj 527 620 sel 93;
#X obj 411 715 + 1;
#X msg 471 811 set \$1;
#X msg 411 680 127;
#X obj 411 743 vsl 19 162 0 127 0 0 empty empty empty 0 -9 0 12 #fcfcfc #000000 #000000 0 1;
#X obj 471 835 s count;
#X obj 411 620 r count;
#X obj 477 620 sel 91;
#X msg 477 680 -1;
#X msg 527 680 1;
#X obj 421 655 delay 1;
#X obj 471 758 sel 1;
#X obj 471 734 > 127;
#X obj 521 758 sel 1;
#X msg 471 782 127;
#X obj 521 734 < 1;
#X msg 521 782 0;
#X obj 477 582 key;
#X text 304 718 reset at 10;
#X obj 24 360 cnv 19 170 180 empty empty simple\ counter 30 15 0 12 #c6ffc7 #404040 0;
#X obj 42 470 + 1;
#X msg 102 459 set \$1;
#X msg 42 445 7;
#X floatatom 42 494 5 0 0 0 - - - 0;
#X obj 42 411 bng 19 250 50 0 empty empty count -6 -8 0 12 #fcfcfc #000000 #000000;
#X text 129 411 reset;
#X msg 102 411 -1;
#X obj 201 360 cnv 19 300 180 empty empty lock\ keyboard\ data\ send/receive 40 15 0 12 #c6feff #404040 0;
#X obj 243 419 key;
#X obj 243 446 spigot;
#X obj 282 419 tgl 19 0 empty empty on/off -10 -10 0 12 #fcfcfc #000000 #000000 0 1;
#X obj 243 473 s key;
#X obj 313 446 r key;
#X floatatom 313 470 5 0 0 0 - - - 0;
#X floatatom 370 470 5 0 0 0 - - - 0;
#X obj 370 446 receive key;
#X text 352 446 ==;
#X msg 39 648 11;
#X connect 1 0 2 0;
#X connect 1 0 7 0;
#X connect 3 0 14 0;
#X connect 3 1 4 0;
#X connect 3 1 9 0;
#X connect 5 0 6 0;
#X connect 5 0 8 0;
#X connect 7 0 12 0;
#X connect 8 0 11 0;
#X connect 9 0 10 0;
#X connect 17 0 24 0;
#X connect 18 0 24 0;
#X connect 19 0 24 0;
#X connect 20 0 23 0;
#X connect 21 0 23 0;
#X connect 22 0 23 0;
#X connect 25 0 27 0;
#X connect 28 0 26 0;
#X connect 37 0 94 0;
#X connect 38 0 41 0;
#X connect 39 0 40 0;
#X connect 39 0 49 0;
#X connect 39 0 54 0;
#X connect 40 0 45 0;
#X connect 41 0 39 0;
#X connect 42 0 44 0;
#X connect 43 0 42 0;
#X connect 43 0 48 0;
#X connect 43 0 51 0;
#X connect 46 0 41 0;
#X connect 47 0 94 0;
#X connect 50 0 40 0;
#X connect 51 0 55 0;
#X connect 53 0 37 0;
#X connect 53 0 38 0;
#X connect 54 0 50 0;
#X connect 55 0 42 0;
#X connect 57 0 66 0;
#X connect 57 0 67 0;
#X connect 58 0 61 0;
#X connect 58 0 59 0;
#X connect 58 0 69 0;
#X connect 58 0 72 0;
#X connect 59 0 62 0;
#X connect 60 0 58 0;
#X connect 63 0 60 0;
#X connect 64 0 65 0;
#X connect 64 0 67 0;
#X connect 65 0 58 1;
#X connect 66 0 58 1;
#X connect 67 0 60 0;
#X connect 68 0 71 0;
#X connect 69 0 68 0;
#X connect 70 0 73 0;
#X connect 71 0 59 0;
#X connect 72 0 70 0;
#X connect 73 0 59 0;
#X connect 74 0 64 0;
#X connect 74 0 57 0;
#X connect 77 0 78 0;
#X connect 77 0 80 0;
#X connect 78 0 79 0;
#X connect 79 0 77 0;
#X connect 81 0 79 0;
#X connect 83 0 78 0;
#X connect 85 0 86 0;
#X connect 86 0 88 0;
#X connect 87 0 86 1;
#X connect 89 0 90 0;
#X connect 92 0 91 0;
#X connect 94 0 43 0;
